HIERARCHY
ROOT Hips
{
	OFFSET 0.000000 0.000000 0.000000
	CHANNELS 6 Xposition Yposition Zposition Zrotation Yrotation Xrotation 
	JOINT LHipJoint
	{
		OFFSET 0.000000 0.000000 0.000000
		CHANNELS 3 Zrotation Yrotation Xrotation
		JOINT LeftUpLeg
		{
			OFFSET 1.363060 -1.794630 0.839290
			CHANNELS 3 Zrotation Yrotation Xrotation
			JOINT LeftLeg
			{
				OFFSET 2.448110 -6.726130 0.000000
				CHANNELS 3 Zrotation Yrotation Xrotation
				JOINT LeftFoot
				{
					OFFSET 2.562200 -7.039590 0.000000
					CHANNELS 3 Zrotation Yrotation Xrotation
					JOINT LeftToeBase
					{
						OFFSET 0.157640 -0.433110 2.322550
						CHANNELS 3 Zrotation Yrotation Xrotation
						End Site
						{
							OFFSET 0.000000 0.000000 0.000000
						}
					}
				}
			}
		}
	}
	JOINT RHipJoint
	{
		OFFSET 0.000000 0.000000 0.000000
		CHANNELS 3 Zrotation Yrotation Xrotation
		JOINT RightUpLeg
		{
			OFFSET -1.305520 -1.794630 0.839290
			CHANNELS 3 Zrotation Yrotation Xrotation
			JOINT RightLeg
			{
				OFFSET -2.542530 -6.985550 0.000000
				CHANNELS 3 Zrotation Yrotation Xrotation
				JOINT RightFoot
				{
					OFFSET -2.568260 -7.056230 0.000000
					CHANNELS 3 Zrotation Yrotation Xrotation
					JOINT RightToeBase
					{
						OFFSET -0.164730 -0.452590 2.363150
						CHANNELS 3 Zrotation Yrotation Xrotation
						End Site
						{
							OFFSET 0.000000 0.000000 0.000000
						}
					}
				}
			}
		}
	}
}
MOTION
Frames: 22
Frame Time: 0.008333
4.803878 17.342357 1.083096 -7.638198 -88.888860 15.152123 -11.521753 3.711308 3.143972 -6.192752 12.691195 -10.035264 -2.364758 -1.188376 -2.363855 0.500098 3.773089 0.074690 0.617800 -0.000000 -28.706000 8.918829 -2.401270 3.492324 5.618001 -3.070354 -4.683225 2.444053 2.122749 -3.924543 -0.738527 -6.247848 -0.626657 -1.611400 0.000000 -36.319000
4.790578 17.343566 1.075413 -4.668341 -87.681687 12.340042 -11.362210 3.786933 3.384346 -6.169867 11.639397 -10.271110 -2.358611 -1.165327 -2.345017 0.469344 3.471572 0.207551 0.595000 0.000000 -28.844600 9.041604 -2.320894 3.397631 5.724969 -3.514063 -4.721260 2.374957 2.155481 -3.733981 -0.846629 -7.107727 -1.002717 -1.753800 -0.000000 -35.774600
4.777842 17.344782 1.068100 -2.976120 -86.348309 10.828501 -11.224856 3.835033 3.623425 -6.150528 10.535011 -10.513201 -2.350810 -1.153298 -2.350389 0.433557 3.158312 0.368313 0.572500 0.000000 -28.975400 9.141585 -2.262441 3.304419 5.830887 -3.970899 -4.775105 2.302325 2.181927 -3.569003 -0.964313 -8.014200 -1.380194 -1.899700 -0.000000 -35.203699
4.765863 17.345962 1.061287 -1.900784 -84.940911 9.958115 -11.099646 3.867448 3.860869 -6.131067 9.398684 -10.767635 -2.342962 -1.147454 -2.380077 0.394705 2.837217 0.552655 0.549300 -0.000001 -29.098100 9.228712 -2.213302 3.211548 5.939018 -4.428943 -4.842083 2.227885 2.206963 -3.434953 -1.089574 -8.953425 -1.746553 -2.046800 -0.000000 -34.611900
4.755116 17.347089 1.054973 -1.166985 -83.488714 9.450486 -10.981466 3.887601 4.093686 -6.108852 8.245516 -11.033988 -2.335663 -1.145919 -2.434296 0.353845 2.512883 0.759284 0.525400 -0.000000 -29.211700 9.308234 -2.168575 3.118539 6.050587 -4.878976 -4.920170 2.152566 2.231796 -3.335130 -1.222244 -9.915238 -2.093260 -2.193200 -0.000000 -34.008901
4.745892 17.348148 1.049135 -0.625129 -82.016425 9.152909 -10.867660 3.896718 4.316659 -6.083476 7.091134 -11.301359 -2.329270 -1.147776 -2.516820 0.311848 2.191520 0.989312 0.501300 0.000001 -29.315800 9.383885 -2.125907 3.022592 6.161946 -5.320951 -5.000653 2.077535 2.256470 -3.275948 -1.361983 -10.879670 -2.411155 -2.334200 -0.000001 -33.405000
4.738312 17.349169 1.043857 -0.235839 -80.531680 9.036150 -10.759248 3.894093 4.530622 -6.052049 5.952813 -11.605618 -2.325396 -1.152367 -2.600827 0.267568 1.859376 1.231819 0.473900 0.000000 -29.415200 9.453132 -2.086253 2.933089 6.283825 -5.727284 -5.107625 2.002933 2.281598 -3.245846 -1.509976 -11.864997 -2.704480 -2.476200 0.000000 -32.811000
4.733174 17.350119 1.038816 0.091188 -79.063260 8.988731 -10.654253 3.879991 4.724767 -6.019682 4.845096 -11.899455 -2.323266 -1.158857 -2.708474 0.222930 1.534850 1.496019 0.445900 0.000000 -29.504000 9.521234 -2.046570 2.836877 6.398727 -6.123237 -5.208653 1.930194 2.305112 -3.255644 -1.663625 -12.823646 -2.960676 -2.607700 -0.000000 -32.233401
4.730354 17.351086 1.034115 0.349727 -77.611218 9.032259 -10.554915 3.853706 4.902338 -5.983605 3.779984 -12.226139 -2.324333 -1.166763 -2.806764 0.176630 1.202287 1.768503 0.414200 0.000000 -29.588000 9.584083 -2.008914 2.744798 6.519565 -6.481393 -5.334190 1.859164 2.327486 -3.287289 -1.822809 -13.779586 -3.189156 -2.737700 0.000000 -31.681600
4.730556 17.352075 1.029370 0.587701 -76.196910 9.098995 -10.460485 3.815193 5.054526 -5.950355 2.768589 -12.546247 -2.327931 -1.175224 -2.911203 0.130260 0.876235 2.055921 0.380900 0.000000 -29.661300 9.645011 -1.970937 2.645765 6.630885 -6.821785 -5.459344 1.790358 2.346085 -3.340410 -1.983522 -14.698212 -3.385107 -2.859200 0.000000 -31.160100
4.734121 17.353202 1.024393 0.814759 -74.828960 9.174259 -10.371866 3.764118 5.178645 -5.923188 1.820292 -12.858499 -2.334319 -1.183466 -3.013803 0.083976 0.556043 2.355244 0.345500 0.000000 -29.723000 9.703502 -1.932376 2.538369 6.730527 -7.145127 -5.584487 1.723887 2.359606 -3.404993 -2.142579 -15.573405 -3.551991 -2.973300 0.000000 -30.669400
4.740928 17.354564 1.019159 1.028344 -73.507355 9.265968 -10.290366 3.700575 5.276327 -5.901572 0.938104 -13.179275 -2.343655 -1.190858 -3.096051 0.037691 0.237589 2.657998 0.307200 0.000000 -29.773100 9.757552 -1.894085 2.425825 6.823311 -7.444681 -5.721460 1.659707 2.367706 -3.468349 -2.297151 -16.412585 -3.696601 -3.085501 0.000000 -30.217200
4.751482 17.356329 1.013299 1.249270 -72.246445 9.336080 -10.216071 3.624576 5.341463 -5.892223 0.129155 -13.477798 -2.355368 -1.196573 -3.167569 -0.007419 -0.069231 2.968298 0.267400 -0.000000 -29.805801 9.808771 -1.854603 2.299577 6.897912 -7.737438 -5.849953 1.598192 2.368231 -3.528482 -2.442861 -17.191512 -3.817114 -3.191300 0.000000 -29.790900
4.765843 17.358602 1.006660 1.477292 -71.050759 9.380999 -10.149990 3.536167 5.373609 -5.896488 -0.605051 -13.752493 -2.369028 -1.199963 -3.221241 -0.050856 -0.362350 3.282002 0.226600 -0.000001 -29.819000 9.856091 -1.814088 2.158956 6.953913 -8.023994 -5.968965 1.539353 2.360311 -3.578277 -2.576808 -17.909295 -3.915772 -3.293100 0.000000 -29.394200
4.784024 17.361550 0.999072 1.714175 -69.926432 9.393273 -10.092977 3.435664 5.371979 -5.915837 -1.262459 -13.996233 -2.384082 -1.200497 -3.253631 -0.091983 -0.637825 3.596409 0.185600 -0.000000 -29.809300 9.898867 -1.772875 2.002683 6.989712 -8.308219 -6.072406 1.483630 2.343394 -3.616435 -2.697169 -18.559609 -3.991458 -3.391100 -0.000000 -29.023100
4.805881 17.365269 0.990384 1.959927 -68.880812 9.368139 -10.045887 3.323432 5.336368 -5.950967 -1.841335 -14.203314 -2.399897 -1.197858 -3.262396 -0.130130 -0.890998 3.908566 0.145400 0.000000 -29.774400 9.936370 -1.731543 1.830493 7.004346 -8.592392 -6.154567 1.431642 2.317403 -3.645233 -2.803128 -19.136625 -4.041158 -3.484701 -0.000000 -28.673500
4.831135 17.369846 0.980528 2.212520 -67.922506 9.305257 -10.009546 3.200150 5.267653 -6.000899 -2.339709 -14.371210 -2.415820 -1.191970 -3.244640 -0.164698 -1.117542 4.214267 0.107200 0.000000 -29.715400 9.967703 -1.691200 1.644169 6.998725 -8.875299 -6.210909 1.384259 2.282973 -3.670448 -2.895695 -19.634892 -4.060943 -3.572099 -0.000000 -28.336100
4.859468 17.375262 0.969360 2.471040 -67.059213 9.202529 -9.984247 3.066702 5.167617 -6.064256 -2.758284 -14.496366 -2.431121 -1.183047 -3.199622 -0.194982 -1.311245 4.508770 0.072800 -0.000000 -29.625100 9.992574 -1.653235 1.445927 6.973000 -9.155875 -6.237987 1.342068 2.240469 -3.697692 -2.975920 -20.050752 -4.041960 -3.653600 -0.000000 -28.040900
4.890393 17.381507 0.957017 2.726727 -66.301777 9.069618 -9.970587 2.924224 5.039248 -6.136759 -3.094592 -14.584406 -2.445032 -1.171485 -3.125176 -0.220501 -1.467523 4.787607 0.043700 -0.000000 -29.516500 10.009886 -1.619268 1.241385 6.931773 -9.426151 -6.235869 1.306388 2.192056 -3.738288 -3.047520 -20.379384 -3.983068 -3.724300 -0.000000 -27.748700
4.923273 17.388415 0.943406 2.980654 -65.659121 8.906669 -9.968059 2.774563 4.885942 -6.217251 -3.345365 -14.639129 -2.457572 -1.158054 -3.019818 -0.241217 -1.585102 5.044340 0.020899 -0.000000 -29.380199 10.020266 -1.591336 1.036046 6.876255 -9.682420 -6.206117 1.277877 2.139075 -3.801366 -3.112801 -20.616489 -3.873719 -3.783599 0.000000 -27.503000
4.957415 17.395824 0.928768 3.225550 -65.139385 8.724686 -9.976284 2.619500 4.712369 -6.299491 -3.512894 -14.666267 -2.467830 -1.143545 -2.885392 -0.256584 -1.657509 5.274968 0.006400 0.000000 -29.235200 10.023492 -1.571037 0.836371 6.811906 -9.914806 -6.152376 1.257194 2.083522 -3.893856 -3.174133 -20.760629 -3.715740 -3.827700 -0.000000 -27.284400
4.992309 17.403478 0.913202 3.456827 -64.748831 8.529176 -9.994091 2.460893 4.523434 -6.379170 -3.601064 -14.669313 -2.475217 -1.128992 -2.727340 -0.266227 -1.678868 5.476731 0.002200 -0.000000 -29.088700 10.020229 -1.559658 0.648427 6.742137 -10.114358 -6.080349 1.244361 2.026615 -4.017783 -3.232108 -20.812176 -3.510211 -3.855600 -0.000000 -27.108700
